solid OpenSCAD_Model
  facet normal 1 -0 0
    outer loop
      vertex 40 0 12
      vertex 40 3 0
      vertex 40 3 12
    endloop
  endfacet
  facet normal 1 0 0
    outer loop
      vertex 40 3 0
      vertex 40 0 12
      vertex 40 0 0
    endloop
  endfacet
  facet normal 0 0 1
    outer loop
      vertex 30 70.8 12
      vertex 15 67.8 12
      vertex 30 4.8 12
    endloop
  endfacet
  facet normal -0 0 1
    outer loop
      vertex 10 70.8 12
      vertex 15 67.8 12
      vertex 30 70.8 12
    endloop
  endfacet
  facet normal 0 0 1
    outer loop
      vertex 15 67.8 12
      vertex 10 70.8 12
      vertex 10 67.8 12
    endloop
  endfacet
  facet normal -0 0 1
    outer loop
      vertex 15 7.8 12
      vertex 30 4.8 12
      vertex 15 67.8 12
    endloop
  endfacet
  facet normal 0 0 1
    outer loop
      vertex 15 7.8 12
      vertex 10 4.8 12
      vertex 30 4.8 12
    endloop
  endfacet
  facet normal 0 0 1
    outer loop
      vertex 10 4.8 12
      vertex 0 7.8 12
      vertex 10 3 12
    endloop
  endfacet
  facet normal -0 0 1
    outer loop
      vertex 0 7.8 12
      vertex 10 4.8 12
      vertex 15 7.8 12
    endloop
  endfacet
  facet normal -0 0 1
    outer loop
      vertex 10 3 12
      vertex 40 0 12
      vertex 40 3 12
    endloop
  endfacet
  facet normal 0 0 1
    outer loop
      vertex 10 3 12
      vertex 0 0 12
      vertex 40 0 12
    endloop
  endfacet
  facet normal 0 0 1
    outer loop
      vertex 0 0 12
      vertex 10 3 12
      vertex 0 7.8 12
    endloop
  endfacet
  facet normal 0 0 -1
    outer loop
      vertex 40 0 0
      vertex 10 3 0
      vertex 40 3 0
    endloop
  endfacet
  facet normal -0 0 -1
    outer loop
      vertex 10 3 0
      vertex 0 0 0
      vertex 10 4.8 0
    endloop
  endfacet
  facet normal 0 0 -1
    outer loop
      vertex 0 0 0
      vertex 10 3 0
      vertex 40 0 0
    endloop
  endfacet
  facet normal 0 0 -1
    outer loop
      vertex 30 4.8 0
      vertex 15 7.8 0
      vertex 30 70.8 0
    endloop
  endfacet
  facet normal 0 0 -1
    outer loop
      vertex 10 4.8 0
      vertex 15 7.8 0
      vertex 30 4.8 0
    endloop
  endfacet
  facet normal 0 0 -1
    outer loop
      vertex 0 7.8 0
      vertex 10 4.8 0
      vertex 0 0 0
    endloop
  endfacet
  facet normal 0 0 -1
    outer loop
      vertex 10 4.8 0
      vertex 0 7.8 0
      vertex 15 7.8 0
    endloop
  endfacet
  facet normal 0 0 -1
    outer loop
      vertex 15 67.8 0
      vertex 30 70.8 0
      vertex 15 7.8 0
    endloop
  endfacet
  facet normal 0 0 -1
    outer loop
      vertex 10 70.8 0
      vertex 15 67.8 0
      vertex 10 67.8 0
    endloop
  endfacet
  facet normal 0 0 -1
    outer loop
      vertex 15 67.8 0
      vertex 10 70.8 0
      vertex 30 70.8 0
    endloop
  endfacet
  facet normal -1 0 0
    outer loop
      vertex 0 0 0
      vertex 0 7.8 12
      vertex 0 7.8 0
    endloop
  endfacet
  facet normal -1 -0 0
    outer loop
      vertex 0 7.8 12
      vertex 0 0 0
      vertex 0 0 12
    endloop
  endfacet
  facet normal 0 1 -0
    outer loop
      vertex 40 3 0
      vertex 10 3 12
      vertex 40 3 12
    endloop
  endfacet
  facet normal 0 1 0
    outer loop
      vertex 10 3 12
      vertex 40 3 0
      vertex 10 3 0
    endloop
  endfacet
  facet normal 0 -1 0
    outer loop
      vertex 0 0 0
      vertex 40 0 12
      vertex 0 0 12
    endloop
  endfacet
  facet normal 0 -1 -0
    outer loop
      vertex 40 0 12
      vertex 0 0 0
      vertex 40 0 0
    endloop
  endfacet
  facet normal 1 -0 0
    outer loop
      vertex 10 3 12
      vertex 10 4.8 0
      vertex 10 4.8 12
    endloop
  endfacet
  facet normal 1 0 0
    outer loop
      vertex 10 4.8 0
      vertex 10 3 12
      vertex 10 3 0
    endloop
  endfacet
  facet normal 0 -1 0
    outer loop
      vertex 10 4.8 0
      vertex 30 4.8 12
      vertex 10 4.8 12
    endloop
  endfacet
  facet normal 0 -1 -0
    outer loop
      vertex 30 4.8 12
      vertex 10 4.8 0
      vertex 30 4.8 0
    endloop
  endfacet
  facet normal 1 -0 0
    outer loop
      vertex 30 4.8 12
      vertex 30 70.8 0
      vertex 30 70.8 12
    endloop
  endfacet
  facet normal 1 0 0
    outer loop
      vertex 30 70.8 0
      vertex 30 4.8 12
      vertex 30 4.8 0
    endloop
  endfacet
  facet normal 0 1 -0
    outer loop
      vertex 15 7.8 0
      vertex 0 7.8 12
      vertex 15 7.8 12
    endloop
  endfacet
  facet normal 0 1 0
    outer loop
      vertex 0 7.8 12
      vertex 15 7.8 0
      vertex 0 7.8 0
    endloop
  endfacet
  facet normal -1 0 0
    outer loop
      vertex 15 7.8 0
      vertex 15 67.8 12
      vertex 15 67.8 0
    endloop
  endfacet
  facet normal -1 -0 0
    outer loop
      vertex 15 67.8 12
      vertex 15 7.8 0
      vertex 15 7.8 12
    endloop
  endfacet
  facet normal 0 -1 0
    outer loop
      vertex 10 67.8 0
      vertex 15 67.8 12
      vertex 10 67.8 12
    endloop
  endfacet
  facet normal 0 -1 -0
    outer loop
      vertex 15 67.8 12
      vertex 10 67.8 0
      vertex 15 67.8 0
    endloop
  endfacet
  facet normal -1 0 0
    outer loop
      vertex 10 67.8 0
      vertex 10 70.8 12
      vertex 10 70.8 0
    endloop
  endfacet
  facet normal -1 -0 0
    outer loop
      vertex 10 70.8 12
      vertex 10 67.8 0
      vertex 10 67.8 12
    endloop
  endfacet
  facet normal 0 1 -0
    outer loop
      vertex 30 70.8 0
      vertex 10 70.8 12
      vertex 30 70.8 12
    endloop
  endfacet
  facet normal 0 1 0
    outer loop
      vertex 10 70.8 12
      vertex 30 70.8 0
      vertex 10 70.8 0
    endloop
  endfacet
endsolid OpenSCAD_Model
